<svg id="Layer_1" enable-background="new 0 0 511.999 511.999" height="512" viewBox="0 0 511.999 511.999" width="512" xmlns="http://www.w3.org/2000/svg"><g><path d="m496.999 241h-31.541c-7.366-103.864-90.595-187.093-194.458-194.459v-31.541c0-8.284-6.716-15-15-15s-15 6.716-15 15v31.541c-103.864 7.367-187.092 90.595-194.459 194.459h-31.541c-8.284 0-15 6.716-15 15s6.716 15 15 15h31.542c7.366 103.863 90.594 187.091 194.458 194.458v31.542c0 8.284 6.716 15 15 15s15-6.716 15-15v-31.541c103.863-7.368 187.091-90.596 194.458-194.459h31.541c8.284 0 15-6.716 15-15s-6.716-15-15-15zm-225.999 194.369v-44.369c0-8.284-6.716-15-15-15s-15 6.716-15 15v44.368c-87.312-7.238-157.131-77.057-164.37-164.368h44.368c8.284 0 15-6.716 15-15s-6.716-15-15-15h-44.368c7.238-87.312 77.057-157.132 164.37-164.37v44.369c0 8.284 6.716 15 15 15s15-6.716 15-15v-44.369c87.312 7.238 157.132 77.058 164.37 164.37h-44.37c-8.284 0-15 6.716-15 15s6.716 15 15 15h44.369c-7.238 87.312-77.058 157.131-164.369 164.369z"/><path d="m333.565 214.694-42.036-10.288-22.775-36.8c-2.734-4.418-7.56-7.106-12.755-7.106s-10.021 2.688-12.755 7.106l-22.774 36.8-42.037 10.288c-5.046 1.235-9.094 4.994-10.7 9.935-1.605 4.941-.54 10.361 2.817 14.327l27.961 33.031-3.206 43.159c-.385 5.181 1.938 10.193 6.142 13.247 4.204 3.053 9.687 3.714 14.496 1.748l40.055-16.386 40.056 16.386c1.831.749 3.759 1.117 5.678 1.117 3.121 0 6.215-.974 8.818-2.865 4.203-3.054 6.527-8.065 6.142-13.247l-3.206-43.158 27.961-33.031c3.357-3.965 4.422-9.385 2.817-14.327-1.604-4.942-5.652-8.701-10.699-9.936zm-46.94 42.593c-2.541 3.001-3.801 6.881-3.51 10.803l1.865 25.105-23.302-9.532c-1.82-.744-3.75-1.117-5.679-1.117s-3.859.373-5.68 1.117l-23.3 9.532 1.865-25.106c.291-3.922-.969-7.801-3.51-10.803l-16.266-19.215 24.454-5.985c3.82-.935 7.12-3.332 9.189-6.676l13.249-21.407 13.249 21.407c2.069 3.344 5.369 5.742 9.189 6.676l24.453 5.985z"/></g></svg>